<svg width="22" height="22" viewBox="0 0 22 22" fill="none" xmlns="http://www.w3.org/2000/svg">
<g clip-path="url(#clip0_1448_4165)">
<path fill-rule="evenodd" clip-rule="evenodd" d="M15.7734 9.36408L10.6557 14.4827C10.4832 14.654 10.2501 14.7501 10.0071 14.7501C9.76412 14.7501 9.53099 14.654 9.35858 14.4827L6.22724 11.3514C6.14214 11.2663 6.07462 11.1653 6.02856 11.0541C5.9825 10.9429 5.9588 10.8237 5.9588 10.7033C5.9588 10.4602 6.05536 10.2271 6.22724 10.0552C6.39913 9.88336 6.63225 9.7868 6.87533 9.7868C7.1184 9.7868 7.35153 9.88336 7.52341 10.0552L10.0067 12.5385L14.4772 8.06791C14.5624 7.9828 14.6634 7.91529 14.7746 7.86923C14.8858 7.82317 15.005 7.79946 15.1253 7.79946C15.2457 7.79946 15.3649 7.82317 15.4761 7.86923C15.5873 7.91529 15.6883 7.9828 15.7734 8.06791C15.8585 8.15302 15.926 8.25405 15.9721 8.36525C16.0181 8.47645 16.0419 8.59563 16.0419 8.71599C16.0419 8.83635 16.0181 8.95553 15.9721 9.06673C15.926 9.17793 15.8585 9.27897 15.7734 9.36408ZM11.0003 0.916992C5.43158 0.916992 0.916992 5.43158 0.916992 11.0003C0.916992 16.5691 5.43158 21.0837 11.0003 21.0837C16.5691 21.0837 21.0837 16.5691 21.0837 11.0003C21.0837 5.43158 16.5691 0.916992 11.0003 0.916992Z" fill="#E97A82"/>
</g>
<defs>
<clipPath id="clip0_1448_4165">
<rect width="22" height="22" fill="white"/>
</clipPath>
</defs>
</svg>
