<svg width="16" height="16" viewBox="0 0 16 16" fill="none" xmlns="http://www.w3.org/2000/svg">
<path opacity="0.6" fill-rule="evenodd" clip-rule="evenodd" d="M8 1.44135C10.1362 1.44135 10.3889 1.44961 11.2326 1.48803C12.0125 1.5236 12.4362 1.65379 12.7181 1.76335C13.0916 1.90847 13.358 2.08185 13.6381 2.36161C13.9182 2.64169 14.0915 2.90811 14.2363 3.28155C14.3459 3.56353 14.4761 3.98714 14.5117 4.76704C14.5501 5.61045 14.5583 5.86353 14.5583 7.99968C14.5583 10.1358 14.5501 10.3886 14.5117 11.2323C14.4761 12.0122 14.3459 12.4358 14.2363 12.7178C14.0912 13.0913 13.9178 13.3577 13.6381 13.6378C13.358 13.9178 13.0916 14.0912 12.7181 14.236C12.4362 14.3456 12.0125 14.4758 11.2326 14.5113C10.3892 14.5498 10.1362 14.558 8 14.558C5.86385 14.558 5.61077 14.5498 4.76736 14.5113C3.98746 14.4758 3.56385 14.3456 3.28186 14.236C2.90843 14.0909 2.642 13.9175 2.36193 13.6378C2.08185 13.3577 1.90847 13.0913 1.76366 12.7178C1.65411 12.4358 1.52392 12.0122 1.48835 11.2323C1.44993 10.3889 1.44167 10.1358 1.44167 7.99968C1.44167 5.86353 1.44993 5.61076 1.48835 4.76704C1.52392 3.98714 1.65411 3.56353 1.76366 3.28155C1.90878 2.90811 2.08217 2.64169 2.36193 2.36161C2.64169 2.08153 2.90843 1.90815 3.28186 1.76335C3.56385 1.65379 3.98746 1.5236 4.76736 1.48803C5.61077 1.44961 5.86385 1.44135 8 1.44135ZM8 0C5.82733 0 5.55488 0.00920891 4.70162 0.0482674C3.85028 0.0870083 3.26853 0.222284 2.75981 0.420117C2.23364 0.624618 1.78748 0.898027 1.34291 1.34291C0.898027 1.7878 0.624618 2.23364 0.420117 2.75981C0.222284 3.26853 0.0870083 3.85028 0.0482674 4.70162C0.00920891 5.55488 0 5.82733 0 8C0 10.1727 0.00920891 10.4451 0.0482674 11.2984C0.0870083 12.1497 0.222284 12.7315 0.420117 13.2402C0.624618 13.7664 0.898027 14.2125 1.34291 14.6571C1.7878 15.102 2.23364 15.3754 2.75981 15.5799C3.26853 15.7777 3.85028 15.913 4.70162 15.9517C5.55488 15.9908 5.82733 16 8 16C10.1727 16 10.4451 15.9908 11.2984 15.9517C12.1497 15.913 12.7315 15.7777 13.2402 15.5799C13.7664 15.3754 14.2125 15.102 14.6571 14.6571C15.102 14.2122 15.3754 13.7664 15.5799 13.2402C15.7777 12.7315 15.913 12.1497 15.9517 11.2984C15.9908 10.4451 16 10.1727 16 8C16 5.82733 15.9908 5.55488 15.9517 4.70162C15.913 3.85028 15.7777 3.26853 15.5799 2.75981C15.3754 2.23364 15.102 1.78748 14.6571 1.34291C14.2122 0.898027 13.7664 0.624618 13.2402 0.420117C12.7315 0.222284 12.1497 0.0870083 11.2984 0.0482674C10.4451 0.00920891 10.1727 0 8 0ZM8 3.89185C5.73111 3.89185 3.89219 5.73109 3.89219 7.99965C3.89219 10.2682 5.73143 12.1075 8 12.1075C10.2686 12.1075 12.1078 10.2682 12.1078 7.99965C12.1078 5.73109 10.2686 3.89185 8 3.89185ZM8 10.6664C6.52721 10.6664 5.33354 9.47244 5.33354 7.99997C5.33354 6.5275 6.52752 5.33352 8 5.33352C9.47247 5.33352 10.6665 6.5275 10.6665 7.99997C10.6665 9.47244 9.47247 10.6664 8 10.6664ZM13.2303 3.72929C13.2303 4.25945 12.8005 4.68923 12.2703 4.68923C11.7401 4.68923 11.3104 4.25945 11.3104 3.72929C11.3104 3.19912 11.7401 2.76934 12.2703 2.76934C12.8005 2.76934 13.2303 3.19912 13.2303 3.72929Z" fill="#111111"/>
</svg>
