<svg width="26" height="26" viewBox="0 0 26 26" fill="none" xmlns="http://www.w3.org/2000/svg">
<path fill-rule="evenodd" clip-rule="evenodd" d="M7.40607 1.0835H7.22377C6.67562 1.0835 6.23125 1.5723 6.23125 2.17527V4.3335H4.8548C3.36958 4.3335 2.16663 5.5116 2.16663 6.96614V9.75016H23.8333V6.96614C23.8333 5.5116 22.6303 4.3335 21.1451 4.3335H19.9915V2.17527C19.9915 1.5723 19.5471 1.0835 18.9989 1.0835H18.8166C18.2685 1.0835 17.8241 1.5723 17.8241 2.17527V4.3335H8.39859V2.17527C8.39859 1.5723 7.95422 1.0835 7.40607 1.0835ZM2.20709 21.9461V12.4989H23.975V21.9461C23.975 23.5874 22.7665 24.9169 21.2743 24.9169H4.90783C3.41567 24.9169 2.20709 23.5874 2.20709 21.9461Z" fill="#C8C8C8"/>
</svg>
