<svg width="18" height="19" viewBox="0 0 18 19" fill="none" xmlns="http://www.w3.org/2000/svg">
<g opacity="0.4">
<path d="M9.00148 4.49315C9.28697 4.49315 9.56675 4.5217 9.84368 4.56167C9.85224 4.51313 9.85795 4.4646 9.85795 4.41321V2.10647C9.85795 1.63255 9.4754 1.25 9.00148 1.25C8.52757 1.25 8.14502 1.63255 8.14502 2.10647V4.41321C8.14502 4.4646 8.15073 4.51313 8.15929 4.56167C8.43336 4.5217 8.71314 4.49315 9.00148 4.49315Z" fill="#66482C"/>
<path d="M4.27079 6.72882C4.30505 6.76308 4.34502 6.79448 4.38499 6.82303C4.72186 6.36911 5.12155 5.96942 5.57547 5.63255C5.54692 5.59258 5.51838 5.55261 5.48126 5.51835L3.85112 3.88821C3.5171 3.55419 2.97467 3.55419 2.64065 3.88821C2.30663 4.22223 2.30663 4.76466 2.64065 5.09868L4.27079 6.72882Z" fill="#66482C"/>
<path d="M0.859319 11.105H3.16607C3.21745 11.105 3.26599 11.0993 3.31452 11.0907C3.2717 10.8167 3.24315 10.5369 3.24315 10.2486C3.24315 9.96021 3.2717 9.68329 3.31167 9.40636C3.26313 9.3978 3.2146 9.39209 3.16321 9.39209H0.856465C0.382555 9.39209 0 9.77464 0 10.2486C0 10.7225 0.382555 11.105 0.856465 11.105H0.859319Z" fill="#66482C"/>
<path d="M14.6913 9.40636C14.7313 9.68043 14.7598 9.96021 14.7598 10.2486C14.7598 10.5369 14.7313 10.8138 14.6885 11.0907C14.737 11.0993 14.7855 11.105 14.8369 11.105H17.1437C17.6176 11.105 18.0001 10.7225 18.0001 10.2486C18.0001 9.77464 17.6176 9.39209 17.1437 9.39209H14.8369C14.7855 9.39209 14.737 9.3978 14.6885 9.40636H14.6913Z" fill="#66482C"/>
<path d="M13.6177 6.82303C13.6577 6.79448 13.6977 6.76593 13.7319 6.72882L15.3621 5.09868C15.6961 4.76466 15.6961 4.22223 15.3621 3.88821C15.028 3.55419 14.4856 3.55419 14.1516 3.88821L12.5215 5.51835C12.4872 5.55261 12.4558 5.59258 12.4272 5.63255C12.8812 5.96942 13.2809 6.36911 13.6177 6.82303Z" fill="#66482C"/>
<path d="M4.98168 11.171H13.021C13.0896 10.8741 13.1295 10.5657 13.1295 10.2488C13.1295 7.97065 11.2824 6.12354 9.00422 6.12354C6.72602 6.12354 4.87891 7.97065 4.87891 10.2488C4.87891 10.5657 4.91888 10.8741 4.98739 11.171H4.98168Z" fill="#66482C"/>
<path d="M16.4775 13.25H1.52247C1.09585 13.25 0.75 13.5263 0.75 13.8671V16.3829C0.75 16.7237 1.09585 17 1.52247 17H16.4775C16.9042 17 17.25 16.7237 17.25 16.3829V13.8671C17.25 13.5263 16.9042 13.25 16.4775 13.25Z" fill="#66482C"/>
</g>
</svg>
