<svg width="18" height="19" viewBox="0 0 18 19" fill="none" xmlns="http://www.w3.org/2000/svg">
<g opacity="0.4">
<path d="M9.00308 3.7408C9.28862 3.7408 9.56844 3.76935 9.8454 3.80933C9.85397 3.76079 9.85968 3.71225 9.85968 3.66085V1.3566C9.85968 0.882614 9.47707 0.5 9.00308 0.5C8.5291 0.5 8.14648 0.882614 8.14648 1.3566V3.66371C8.14648 3.7151 8.1522 3.76364 8.16076 3.81218C8.43487 3.77221 8.71469 3.74366 9.00308 3.74366V3.7408Z" fill="#66482C"/>
<path d="M4.26865 5.97686C4.30291 6.01113 4.34288 6.04253 4.38286 6.07109C4.71979 5.61709 5.11953 5.21734 5.57353 4.88042C5.54498 4.84044 5.51642 4.80047 5.4793 4.7662L3.84891 3.13581C3.51484 2.80174 2.97232 2.80174 2.63825 3.13581C2.30418 3.46988 2.30418 4.0124 2.63825 4.34647L4.26865 5.97686Z" fill="#66482C"/>
<path d="M3.31218 10.3395C3.27221 10.0654 3.24365 9.78561 3.24365 9.49722C3.24365 9.20884 3.27221 8.93187 3.31218 8.6549C3.26364 8.64634 3.2151 8.64062 3.16371 8.64062H0.856599C0.382614 8.64062 0 9.02324 0 9.49722C0 9.97121 0.382614 10.3538 0.856599 10.3538H3.16371C3.2151 10.3538 3.26364 10.3481 3.31218 10.3395Z" fill="#66482C"/>
<path d="M4.38286 12.9268C4.34288 12.9553 4.30291 12.9839 4.26865 13.021L2.63825 14.6514C2.30418 14.9855 2.30418 15.528 2.63825 15.862C2.80671 16.0305 3.02372 16.1133 3.24358 16.1133C3.46344 16.1133 3.6833 16.0305 3.84891 15.862L5.4793 14.2316C5.51357 14.1974 5.54498 14.1574 5.57353 14.1174C5.11953 13.7805 4.71979 13.3808 4.38286 12.9268Z" fill="#66482C"/>
<path d="M9.00308 15.256C8.71755 15.256 8.43773 15.2275 8.16076 15.1875C8.1522 15.236 8.14648 15.2846 8.14648 15.336V17.6431C8.14648 18.1171 8.5291 18.4997 9.00308 18.4997C9.47707 18.4997 9.85968 18.1171 9.85968 17.6431V15.336C9.85968 15.2846 9.85397 15.236 9.8454 15.1875C9.57129 15.2275 9.29147 15.256 9.00308 15.256Z" fill="#66482C"/>
<path d="M13.7341 13.0176C13.6998 12.9833 13.6598 12.9519 13.6199 12.9233C13.2829 13.3773 12.8832 13.7771 12.4292 14.114C12.4578 14.154 12.4863 14.194 12.5234 14.2282L14.1538 15.8586C14.3223 16.0271 14.5393 16.1099 14.7591 16.1099C14.979 16.1099 15.1989 16.0271 15.3645 15.8586C15.6986 15.5245 15.6986 14.982 15.3645 14.648L13.7341 13.0176Z" fill="#66482C"/>
<path d="M17.1436 8.64062H14.8365C14.7851 8.64062 14.7366 8.64634 14.6909 8.6549C14.7309 8.92901 14.7594 9.20884 14.7594 9.49722C14.7594 9.78561 14.7309 10.0626 14.6909 10.3395C14.7395 10.3481 14.788 10.3538 14.8365 10.3538H17.1436C17.6176 10.3538 18.0002 9.97121 18.0002 9.49722C18.0002 9.02324 17.6176 8.64062 17.1436 8.64062Z" fill="#66482C"/>
<path d="M13.6199 6.07109C13.6598 6.04253 13.6998 6.01398 13.7341 5.97686L15.3645 4.34647C15.6986 4.0124 15.6986 3.46988 15.3645 3.13581C15.0304 2.80174 14.4879 2.80174 14.1538 3.13581L12.5234 4.7662C12.4892 4.80047 12.4578 4.84044 12.4292 4.88042C12.8832 5.21734 13.2829 5.61709 13.6199 6.07109Z" fill="#66482C"/>
<path d="M12.8121 11.0755C13.6841 8.97023 12.6844 6.55668 10.5791 5.68466C8.47388 4.81264 6.06033 5.81237 5.18831 7.91761C4.31629 10.0229 5.31601 12.4364 7.42126 13.3084C9.5265 14.1804 11.94 13.1807 12.8121 11.0755Z" fill="#66482C"/>
</g>
</svg>
