<svg width="16" height="17" viewBox="0 0 16 17" fill="none" xmlns="http://www.w3.org/2000/svg">
<path opacity="0.4" d="M7.53155 7.81366L0.551975 3.99342C0.677864 3.87721 0.840067 3.76585 1.03858 3.65933L6.07172 0.892192C6.54623 0.630731 7.03525 0.5 7.53881 0.5C8.03753 0.5 8.52171 0.630731 8.99138 0.892192L14.0318 3.65933C14.2255 3.76585 14.3852 3.87721 14.5111 3.99342L7.53155 7.81366ZM6.936 16.5C6.88274 16.4903 6.82947 16.4734 6.77621 16.4492C6.7278 16.4298 6.67696 16.4056 6.6237 16.3765L1.11121 13.3552C0.733545 13.147 0.452716 12.9073 0.268724 12.6362C0.0895748 12.365 0 11.9777 0 11.4741V5.43872C0 5.29346 0.0121047 5.17 0.0363141 5.06832L6.936 8.88856V16.5ZM8.1271 16.5V8.88856L15.0268 5.06832C15.051 5.17 15.0631 5.29346 15.0631 5.43872V11.4741C15.0631 11.9777 14.9735 12.365 14.7944 12.6362C14.6152 12.9073 14.3344 13.147 13.9519 13.3552L8.4394 16.3765C8.38614 16.4056 8.33288 16.4298 8.27962 16.4492C8.22636 16.4734 8.17552 16.4903 8.1271 16.5Z" fill="#66482C"/>
</svg>
