<svg width="8" height="14" viewBox="0 0 8 14" fill="none" xmlns="http://www.w3.org/2000/svg">
<path fill-rule="evenodd" clip-rule="evenodd" d="M1.18758 13.75C0.900078 13.75 0.612578 13.6375 0.387578 13.425C0.177665 13.2142 0.0598145 12.9288 0.0598145 12.6313C0.0598145 12.3338 0.177665 12.0484 0.387578 11.8375L5.22508 7.00003L0.387578 2.17503C0.177665 1.96419 0.0598145 1.67879 0.0598145 1.38128C0.0598145 1.08377 0.177665 0.798364 0.387578 0.587529C0.598413 0.377616 0.883813 0.259766 1.18133 0.259766C1.47884 0.259766 1.76424 0.377616 1.97508 0.587529L7.60008 6.21253C7.80999 6.42336 7.92784 6.70877 7.92784 7.00628C7.92784 7.30379 7.80999 7.5892 7.60008 7.80003L1.97508 13.425C1.76258 13.6375 1.47508 13.75 1.18758 13.75" fill="#C8C8C8"/>
</svg>
