<svg width="36" height="37" viewBox="0 0 36 37" fill="none" xmlns="http://www.w3.org/2000/svg">
<rect y="0.519531" width="36" height="36" rx="8" fill="#3F3E3E"/>
<path fill-rule="evenodd" clip-rule="evenodd" d="M12.8364 7.51953H12.6681C12.1621 7.51953 11.752 7.97073 11.752 8.52732V10.5195H10.4814C9.11042 10.5195 8 11.607 8 12.9497V15.5195H28V12.9497C28 11.607 26.8896 10.5195 25.5186 10.5195H24.4537V8.52732C24.4537 7.97073 24.0435 7.51953 23.5375 7.51953H23.3692C22.8632 7.51953 22.4531 7.97073 22.4531 8.52732V10.5195H13.7526V8.52732C13.7526 7.97073 13.3424 7.51953 12.8364 7.51953ZM8.03735 26.7773V18.0568H28.1308V26.7773C28.1308 28.2924 27.0152 29.5196 25.6379 29.5196H10.5303C9.15297 29.5196 8.03735 28.2924 8.03735 26.7773Z" fill="#F7F3EC"/>
</svg>
