<svg width="48" height="48" viewBox="0 0 48 48" fill="none" xmlns="http://www.w3.org/2000/svg">
<path opacity="0.7" fill-rule="evenodd" clip-rule="evenodd" d="M15 23.2939C15.9849 23.2939 16.9602 23.1 17.8701 22.723C18.7801 22.3461 19.6069 21.7937 20.3033 21.0972C20.9997 20.4008 21.5522 19.574 21.9291 18.6641C22.306 17.7541 22.5 16.7789 22.5 15.7939C22.5 14.809 22.306 13.8338 21.9291 12.9238C21.5522 12.0139 20.9997 11.1871 20.3033 10.4906C19.6069 9.79421 18.7801 9.24176 17.8701 8.86485C16.9602 8.48794 15.9849 8.29395 15 8.29395C13.0109 8.29395 11.1032 9.08412 9.6967 10.4906C8.29018 11.8972 7.5 13.8048 7.5 15.7939C7.5 17.7831 8.29018 19.6907 9.6967 21.0972C11.1032 22.5038 13.0109 23.2939 15 23.2939ZM16 35.6559C16 33.1279 17.542 29.3859 20.96 26.5519C19.274 25.9579 17.304 25.5859 15 25.5859C4.92 25.5859 1 32.4619 1 35.6559C1 38.8559 9.346 39.7039 15 39.7039C15.942 39.7039 16.96 39.6779 18.002 39.6239C16.68 38.5699 16 37.2499 16 35.6559Z" fill="#E97A82"/>
<path fill-rule="evenodd" clip-rule="evenodd" d="M33 25.5879C22.92 25.5879 19 32.4619 19 35.6579C19 38.8539 27.346 39.7059 33 39.7059C38.654 39.7059 47 38.8539 47 35.6579C47 32.4619 43.08 25.5879 33 25.5879ZM33 23.2939C33.9849 23.2939 34.9602 23.1 35.8701 22.723C36.7801 22.3461 37.6069 21.7937 38.3033 21.0972C38.9997 20.4008 39.5522 19.574 39.9291 18.6641C40.306 17.7541 40.5 16.7789 40.5 15.7939C40.5 14.809 40.306 13.8338 39.9291 12.9238C39.5522 12.0139 38.9997 11.1871 38.3033 10.4906C37.6069 9.79421 36.7801 9.24176 35.8701 8.86485C34.9602 8.48794 33.9849 8.29395 33 8.29395C31.0109 8.29395 29.1032 9.08412 27.6967 10.4906C26.2902 11.8972 25.5 13.8048 25.5 15.7939C25.5 17.7831 26.2902 19.6907 27.6967 21.0972C29.1032 22.5038 31.0109 23.2939 33 23.2939Z" fill="#E97A82"/>
</svg>
