<svg width="24" height="25" viewBox="0 0 24 25" fill="none" xmlns="http://www.w3.org/2000/svg">
<path fill-rule="evenodd" clip-rule="evenodd" d="M9.1252 17.6249C9.60259 17.6249 10.0604 17.8145 10.398 18.1521C10.7356 18.4897 10.9252 18.9475 10.9252 19.4249C10.9252 19.9023 10.7356 20.3601 10.398 20.6977C10.0604 21.0353 9.60259 21.2249 9.1252 21.2249C8.64781 21.2249 8.18997 21.0353 7.8524 20.6977C7.51484 20.3601 7.3252 19.9023 7.3252 19.4249C7.3252 18.9475 7.51484 18.4897 7.8524 18.1521C8.18997 17.8145 8.64781 17.6249 9.1252 17.6249ZM10.9252 12.6249C10.9252 13.6249 10.1252 14.4249 9.1252 14.4249C8.1252 14.4249 7.3252 13.6249 7.3252 12.6249C7.3252 11.6249 8.1252 10.8249 9.1252 10.8249C10.1252 10.8249 10.9252 11.6249 10.9252 12.6249ZM10.9252 5.8249C10.9252 6.8249 10.1252 7.6249 9.1252 7.6249C8.1252 7.6249 7.3252 6.8249 7.3252 5.8249C7.3252 4.8249 8.1252 4.0249 9.1252 4.0249C10.1252 4.0249 10.9252 4.8249 10.9252 5.8249ZM15.1252 17.6249C15.6026 17.6249 16.0604 17.8145 16.398 18.1521C16.7356 18.4897 16.9252 18.9475 16.9252 19.4249C16.9252 19.9023 16.7356 20.3601 16.398 20.6977C16.0604 21.0353 15.6026 21.2249 15.1252 21.2249C14.6478 21.2249 14.19 21.0353 13.8524 20.6977C13.5148 20.3601 13.3252 19.9023 13.3252 19.4249C13.3252 18.9475 13.5148 18.4897 13.8524 18.1521C14.19 17.8145 14.6478 17.6249 15.1252 17.6249ZM16.9252 12.6249C16.9252 13.6249 16.1252 14.4249 15.1252 14.4249C14.1252 14.4249 13.3252 13.6249 13.3252 12.6249C13.3252 11.6249 14.1252 10.8249 15.1252 10.8249C16.1252 10.8249 16.9252 11.6249 16.9252 12.6249ZM16.9252 5.8249C16.9252 6.8249 16.1252 7.6249 15.1252 7.6249C14.1252 7.6249 13.3252 6.8249 13.3252 5.8249C13.3252 4.8249 14.1252 4.0249 15.1252 4.0249C16.1252 4.0249 16.9252 4.8249 16.9252 5.8249Z" fill="#C8C8C8"/>
</svg>
