<svg width="36" height="37" viewBox="0 0 36 37" fill="none" xmlns="http://www.w3.org/2000/svg">
<path fill-rule="evenodd" clip-rule="evenodd" d="M12.4059 7.0835H12.2236C11.6755 7.0835 11.2311 7.5723 11.2311 8.17527V10.3335H9.85468C8.36946 10.3335 7.1665 11.5116 7.1665 12.9661V15.7502H28.8332V12.9661C28.8332 11.5116 27.6302 10.3335 26.145 10.3335H24.9913V8.17527C24.9913 7.5723 24.547 7.0835 23.9988 7.0835H23.8165C23.2684 7.0835 22.824 7.5723 22.824 8.17527V10.3335H13.3985V8.17527C13.3985 7.5723 12.9541 7.0835 12.4059 7.0835ZM7.20697 27.9461V18.4989H28.9749V27.9461C28.9749 29.5874 27.7663 30.9169 26.2742 30.9169H9.90771C8.41555 30.9169 7.20697 29.5874 7.20697 27.9461Z" fill="#C8C8C8"/>
</svg>
