<svg width="32" height="32" viewBox="0 0 32 32" fill="none" xmlns="http://www.w3.org/2000/svg">
<path fill-rule="evenodd" clip-rule="evenodd" d="M22.516 8.85852C22.5161 9.71561 22.3474 10.5643 22.0195 11.3562C21.6916 12.1481 21.2109 12.8676 20.6049 13.4738C19.9989 14.0799 19.2794 14.5607 18.4876 14.8888C17.6958 15.2169 16.8471 15.3858 15.99 15.3859C14.259 15.386 12.5989 14.6986 11.3748 13.4747C10.1507 12.2508 9.46287 10.5908 9.46269 8.85985C9.4626 8.00276 9.63133 7.15404 9.95925 6.36215C10.2872 5.57027 10.7678 4.85073 11.3738 4.24461C12.5977 3.02049 14.2577 2.3327 15.9887 2.33252C17.7197 2.33234 19.3798 3.0198 20.6039 4.24366C21.828 5.46753 22.5158 7.12754 22.516 8.85852ZM15.9894 17.3825C6.59069 17.3825 2.93469 23.3639 2.93469 26.1465C2.93469 28.9279 10.7174 29.6692 15.9894 29.6692C21.2614 29.6692 29.044 28.9279 29.044 26.1465C29.044 23.3639 25.388 17.3825 15.9894 17.3825Z" fill="#C8C8C8"/>
</svg>
