<svg width="26" height="26" viewBox="0 0 26 26" fill="none" xmlns="http://www.w3.org/2000/svg">
<path fill-rule="evenodd" clip-rule="evenodd" d="M16.6564 21.7751C16.4643 21.7752 16.2742 21.7374 16.0968 21.6637C15.9194 21.5901 15.7584 21.4822 15.6229 21.3461L8.31036 14.0336C8.1745 13.8978 8.06674 13.7365 7.99321 13.5591C7.91968 13.3816 7.88184 13.1914 7.88184 12.9993C7.88184 12.8072 7.91968 12.617 7.99321 12.4395C8.06674 12.262 8.1745 12.1008 8.31036 11.965L15.6229 4.65248C15.7576 4.51195 15.9191 4.39973 16.0977 4.32241C16.2764 4.2451 16.4687 4.20424 16.6634 4.20223C16.8581 4.20022 17.0512 4.2371 17.2315 4.31071C17.4117 4.38433 17.5755 4.49319 17.7131 4.63091C17.8507 4.76864 17.9594 4.93245 18.0329 5.11275C18.1064 5.29305 18.1431 5.48621 18.1409 5.68089C18.1388 5.87557 18.0978 6.06786 18.0203 6.24649C17.9428 6.42511 17.8305 6.58647 17.6899 6.72111L11.4125 13.0001L17.6899 19.2775C17.8947 19.4819 18.0343 19.7425 18.0909 20.0263C18.1476 20.3102 18.1187 20.6044 18.0081 20.8718C17.8974 21.1392 17.7099 21.3678 17.4693 21.5286C17.2287 21.6894 16.9458 21.7752 16.6564 21.7751Z" fill="#9C9C9C"/>
</svg>
